<svg xmlns="http://www.w3.org/2000/svg" viewBox="0 0 1200 650"><defs><linearGradient id="g" x1="0" x2="1"><stop stop-color="#101827"/><stop offset="1" stop-color="#1e3150"/></linearGradient></defs><rect width="1200" height="650" fill="url(#g)"/><circle cx="1100" cy="80" r="180" fill="#58d5c9" opacity=".06"/><circle cx="100" cy="600" r="240" fill="#f6c85f" opacity=".04"/><rect x="65" y="70" width="1070" height="510" rx="32" fill="#172338" opacity=".72"/><text x="110" y="170" font-family="Arial,sans-serif" font-size="28" font-weight="700" fill="#58d5c9">NORY MUSIC LMS</text><text x="110" y="255" font-family="Arial,sans-serif" font-size="52" font-weight="700" fill="#f4f7fb">Identify the Chord</text><text x="110" y="310" font-family="Arial,sans-serif" font-size="24" fill="#aab7ca">Recognise a chord shape and sound</text><g stroke="#f4f7fb" stroke-width="4"><path d="M690 200H1040M690 260H1040M690 320H1040M690 380H1040M690 440H1040"/><path d="M690 200V440M760 200V440M830 200V440M900 200V440M970 200V440M1040 200V440"/></g><g fill="#58d5c9"><circle cx="760" cy="320" r="13"/><circle cx="830" cy="380" r="13"/><circle cx="900" cy="260" r="13"/><circle cx="970" cy="380" r="13"/></g><text x="110" y="515" font-family="Arial,sans-serif" font-size="22" fill="#f6c85f">LEARN • PRACTISE • PLAY</text><text x="110" y="550" font-family="Arial,sans-serif" font-size="18" fill="#aab7ca">Interactive visual question</text></svg>